<?xml version="1.0" standalone="no"?>
<!DOCTYPE svg PUBLIC "-//W3C//DTD SVG 20010904//EN"
 "http://www.w3.org/TR/2001/REC-SVG-20010904/DTD/svg10.dtd">
<svg version="1.0" xmlns="http://www.w3.org/2000/svg"
 width="3140.000000pt" height="2713.000000pt" viewBox="0 0 3140.000000 2713.000000"
 preserveAspectRatio="xMidYMid meet">

<g transform="translate(0.000000,2713.000000) scale(0.100000,-0.100000)"
fill="#000000" stroke="none">
<path d="M19705 23134 c-344 -7 -881 -25 -1030 -34 -434 -28 -1394 -127 -1492
-155 -64 -19 -119 -70 -128 -119 -11 -58 0 -142 48 -376 128 -618 187 -1415
159 -2140 -16 -404 -12 -401 -366 -294 -183 55 -239 58 -310 20 -56 -30 -112
-34 -157 -11 -16 9 -68 41 -114 71 -285 186 -635 281 -1136 310 -191 11 -275
-24 -298 -124 -10 -41 -7 -72 24 -247 63 -357 94 -448 227 -670 87 -146 156
-248 483 -712 168 -238 215 -318 215 -363 0 -31 -76 -309 -186 -677 -127 -426
-150 -562 -141 -836 6 -205 29 -333 93 -525 174 -522 484 -937 993 -1328 l100
-76 -111 -182 c-60 -99 -164 -257 -231 -351 -349 -491 -420 -560 -912 -888
-305 -204 -735 -510 -889 -634 -235 -188 -388 -354 -795 -863 -445 -557 -619
-747 -808 -882 -155 -112 -228 -137 -398 -138 -49 -1 -124 -5 -165 -10 -102
-12 -323 -35 -575 -60 -454 -44 -670 -115 -952 -310 -311 -217 -371 -253 -620
-379 -619 -313 -1085 -639 -1522 -1066 -259 -254 -412 -432 -769 -895 -509
-661 -733 -919 -903 -1040 -107 -76 -257 -145 -369 -171 -297 -68 -406 -98
-643 -180 -465 -161 -730 -249 -809 -269 -43 -11 -146 -27 -230 -35 -180 -17
-284 -35 -414 -70 -466 -123 -815 -468 -841 -830 -10 -144 25 -232 196 -494
l100 -154 208 -43 c114 -23 284 -59 376 -78 622 -133 889 -125 2032 60 635
102 1478 223 2164 309 376 47 795 101 932 120 407 57 492 47 550 -67 29 -56
39 -116 55 -327 20 -273 45 -366 120 -458 59 -71 124 -108 304 -167 421 -140
921 -243 1525 -315 203 -24 786 -77 1010 -91 506 -32 907 15 1194 139 238 102
414 280 497 501 l33 85 393 6 c414 7 600 20 1128 80 320 36 1550 202 1895 255
192 30 243 30 675 -6 440 -36 525 -41 905 -50 402 -10 510 -20 685 -66 128
-34 245 -83 359 -151 l96 -57 195 -13 c429 -27 629 -33 793 -23 89 5 275 12
412 14 391 6 510 42 673 203 30 29 57 53 60 53 3 0 210 34 461 75 757 124 924
147 1401 200 434 48 646 87 750 140 65 33 126 105 148 174 28 90 23 310 -11
485 -47 243 -83 722 -67 891 14 153 84 509 231 1170 213 958 257 1201 266
1495 11 358 -28 737 -158 1520 -70 424 -132 733 -195 984 -80 315 -130 448
-314 841 -166 355 -226 512 -375 983 -197 625 -246 766 -360 1027 -66 152
-143 300 -230 440 -535 863 -665 1049 -900 1293 -146 152 -259 244 -492 400
-304 206 -520 390 -868 744 -439 446 -775 797 -823 861 -138 182 -182 379
-138 621 30 166 14 285 -56 426 -34 69 -61 103 -138 180 -55 56 -137 124 -195
163 -55 37 -111 75 -124 85 l-24 19 66 126 c36 70 62 129 58 131 -4 3 -52 8
-107 11 -91 7 -104 5 -167 -19 -38 -14 -163 -74 -278 -132 -115 -59 -211 -105
-213 -103 -4 5 -53 655 -61 819 -15 280 36 1344 85 1780 36 314 -6 376 -288
425 -95 17 -260 23 -477 19z m1352 -3573 c30 -78 88 -155 156 -204 73 -54 80
-69 97 -217 6 -52 22 -136 36 -186 30 -115 30 -122 -5 -192 -49 -98 -53 -123
-62 -422 -5 -157 -10 -300 -11 -319 -3 -34 -1 -35 154 -135 l156 -101 -12 -29
c-9 -23 -22 -31 -61 -42 -28 -7 -90 -31 -140 -54 -130 -60 -163 -71 -227 -71
-70 -1 -126 23 -191 81 -41 37 -52 41 -80 36 -39 -7 -132 -64 -122 -74 3 -4
84 -32 178 -62 162 -53 172 -57 171 -81 -1 -13 -5 -56 -9 -96 l-7 -71 59 5
c79 7 224 -12 281 -37 91 -40 163 -136 178 -237 3 -24 9 -43 13 -43 4 0 49 56
101 125 52 69 97 125 100 125 8 0 112 -401 107 -407 -3 -2 -152 48 -331 111
-180 64 -331 117 -337 119 -55 12 57 -88 294 -262 107 -79 157 -88 203 -40 16
17 46 40 68 51 38 20 39 20 58 0 39 -39 54 -398 23 -547 -39 -187 -126 -382
-295 -660 -345 -568 -609 -870 -970 -1108 -269 -177 -525 -260 -1020 -331
-457 -65 -957 -95 -1120 -67 -290 51 -695 270 -1104 598 -27 22 -28 24 -12 48
9 14 22 25 28 25 7 0 58 -16 115 -36 57 -20 106 -34 109 -31 6 6 95 599 91
604 -2 1 -65 -12 -142 -30 l-138 -32 -13 -40 c-7 -22 -29 -94 -49 -160 -79
-258 -127 -307 -431 -440 -81 -35 -149 -63 -151 -61 -2 2 15 52 38 112 54 141
58 201 14 264 -16 24 -108 109 -204 189 -238 199 -434 383 -473 444 -46 72
-51 161 -14 242 l26 57 -46 -37 c-39 -32 -48 -36 -59 -24 -7 8 -76 93 -153
189 -164 205 -167 192 33 194 111 0 136 -2 169 -19 48 -25 77 -62 85 -111 l6
-37 155 -57 155 -57 7 36 c4 20 7 52 7 72 l1 36 -117 19 -118 20 3 39 c10 132
90 226 287 338 66 37 137 82 158 100 l38 32 -116 165 c-73 105 -111 166 -103
169 7 2 42 12 78 21 56 14 65 19 68 41 3 23 -3 26 -105 53 -59 16 -113 31
-120 33 -8 3 -12 -47 -15 -190 -4 -228 1 -217 -121 -278 l-78 -40 7 73 6 73
-40 18 c-52 23 -65 57 -48 124 8 32 12 121 12 263 -1 298 0 296 -249 387 -67
25 -125 48 -130 52 -5 6 133 368 149 389 1 2 12 -2 25 -8 l22 -12 -6 163 c-4
90 -10 222 -14 293 l-6 129 43 -6 c23 -3 47 -10 52 -15 6 -6 13 -36 17 -68 8
-57 35 -134 100 -277 l31 -68 30 16 31 16 -57 106 -57 106 106 104 c58 56 110
103 115 103 5 0 23 -50 41 -112 67 -232 124 -296 276 -306 86 -5 140 15 331
123 73 41 135 75 138 75 3 0 6 -5 6 -11 0 -25 89 -195 113 -218 38 -35 103
-38 232 -11 59 12 108 20 110 18 1 -2 31 -52 65 -113 81 -142 138 -223 161
-230 27 -9 169 16 169 29 0 6 -15 67 -34 136 l-33 125 -12 -45 c-24 -93 -12
-100 -195 115 l-169 198 32 64 c17 35 31 72 31 83 0 11 -19 41 -41 65 l-41 45
42 64 c23 36 39 69 36 74 -3 5 -29 12 -57 16 -34 5 -49 11 -46 19 3 7 42 106
87 221 45 116 86 218 91 228 8 15 23 18 90 18 66 0 80 -3 76 -14 -3 -8 -58
-89 -123 -181 l-117 -166 76 -77 c87 -90 101 -127 75 -199 -9 -24 -14 -43 -11
-43 2 0 67 56 145 124 l142 125 30 -16 c24 -13 35 -13 67 -3 22 8 55 10 81 6
129 -19 208 -142 193 -300 -3 -40 -9 -77 -13 -83 -5 -8 -27 -9 -77 -3 l-69 9
-91 -63 c-49 -34 -105 -82 -124 -106 -29 -39 -33 -50 -29 -90 3 -25 55 -172
120 -335 165 -412 187 -481 198 -600 5 -55 9 -129 10 -164 l0 -64 98 7 c231
15 272 19 272 25 0 3 -39 55 -85 115 -47 60 -85 115 -85 123 0 7 14 107 31
223 17 116 29 214 26 216 -3 3 -31 -14 -63 -36 -53 -37 -64 -41 -105 -37 -34
3 -63 16 -110 48 -35 24 -66 45 -68 46 -10 7 13 13 154 38 83 15 151 29 153
30 2 2 -15 121 -37 265 -23 145 -41 268 -41 275 0 8 8 11 19 8 16 -4 23 15 60
161 22 91 41 170 41 175 0 5 -13 12 -30 16 -16 4 -30 10 -30 13 1 8 133 115
148 120 10 3 173 -637 172 -678 -1 -14 -14 -40 -29 -58 -26 -30 -31 -33 -51
-22 -27 14 -32 32 43 -157 29 -73 54 -133 57 -133 6 0 354 369 358 380 2 4
-44 36 -101 70 -130 77 -172 117 -209 199 -16 35 -27 65 -25 67 1 1 27 14 56
28 67 31 79 26 172 -71 75 -77 90 -101 83 -129 -5 -17 27 -36 227 -138 167
-86 230 -114 225 -100 -24 57 -65 187 -62 193 2 3 47 35 100 71 l96 65 67 170
c36 94 69 174 73 178 4 4 10 -41 14 -100 7 -120 20 -181 41 -189 16 -6 82 13
90 25 2 5 -5 35 -18 67 -17 47 -22 80 -21 164 0 124 24 205 92 309 23 35 53
95 68 133 24 64 34 75 137 167 62 55 220 190 352 300 l239 200 23 -101 c12
-56 30 -122 40 -147z m-3954 -18 c34 -17 65 -66 73 -116 8 -43 -7 -38 192 -65
78 -11 145 -22 148 -24 15 -15 7 -87 -13 -111 -13 -17 -24 -50 -28 -88 -9 -77
-31 -103 -74 -88 -16 6 -35 17 -42 25 -6 8 -15 14 -20 14 -5 0 -9 -95 -9 -211
l0 -210 -37 3 c-33 3 -39 8 -71 66 l-35 63 -27 -26 -27 -26 -6 23 c-3 13 -13
93 -23 178 -10 85 -19 157 -20 159 -4 5 -194 -161 -194 -171 0 -4 5 -17 12
-27 11 -18 13 -18 75 1 36 11 67 17 70 15 7 -8 -42 -100 -64 -119 -10 -10 -39
-25 -63 -33 -75 -27 -253 -66 -261 -58 -4 4 -10 24 -14 44 l-7 36 85 22 c46
13 89 26 94 30 5 3 17 47 26 96 11 56 30 115 52 157 l34 67 -80 37 c-45 21
-108 57 -142 81 -34 24 -63 39 -65 34 -2 -5 4 -36 12 -69 25 -96 25 -98 -41
-106 -32 -4 -75 -9 -95 -13 -34 -5 -38 -3 -38 16 0 65 68 171 149 231 57 43
302 166 356 180 35 10 79 3 118 -17z m2717 -399 l0 -136 -47 40 c-76 63 -114
82 -162 82 -63 0 -100 -28 -179 -133 -74 -99 -133 -157 -159 -157 -13 0 -15 9
-9 66 23 226 167 339 461 364 50 4 91 8 93 9 1 0 2 -60 2 -135z m-1245 -80
c-11 -8 -58 -26 -105 -40 -211 -63 -245 -90 -252 -198 -3 -40 -5 -44 -15 -29
-25 34 -53 125 -53 173 0 48 17 79 43 80 7 1 50 7 97 14 47 8 135 14 195 15
100 0 108 -1 90 -15z m3898 -1568 l817 -900 -27 -45 c-14 -25 -35 -62 -47 -81
l-21 -35 41 32 40 32 23 -72 c13 -40 34 -94 48 -120 28 -57 130 -160 185 -188
38 -19 43 -20 99 -5 109 27 137 -1 138 -142 l1 -72 -37 5 c-71 10 -207 25
-226 25 -16 0 -13 -7 15 -46 53 -75 145 -170 194 -203 76 -50 173 -59 269 -25
19 6 19 6 2 -8 -10 -7 -40 -50 -67 -93 -26 -44 -60 -89 -74 -99 -35 -26 -85
-24 -139 7 l-44 24 45 -86 c182 -347 219 -375 621 -471 73 -17 135 -30 137
-28 2 2 -31 43 -72 91 -42 48 -72 92 -68 98 8 14 114 3 159 -15 43 -19 81 -64
94 -111 6 -22 11 -102 11 -177 0 -75 3 -143 6 -152 5 -13 25 -16 112 -16 l106
0 -60 -36 c-76 -46 -132 -99 -155 -149 -35 -74 -21 -141 48 -242 26 -38 68
-99 94 -138 27 -38 49 -77 49 -86 0 -11 -15 -21 -45 -29 -25 -7 -45 -15 -45
-18 0 -2 29 -43 64 -91 120 -162 202 -315 271 -505 34 -94 85 -265 85 -285 0
-5 -18 -11 -39 -13 l-39 -3 175 -253 175 -253 200 -100 199 -100 -6 -32 c-4
-18 -9 -34 -11 -36 -2 -2 -53 2 -115 8 -61 7 -113 11 -114 9 -3 -3 240 -584
309 -738 26 -57 90 -180 142 -272 142 -248 154 -285 165 -493 4 -93 17 -231
28 -305 39 -260 54 -479 54 -805 0 -660 -94 -1254 -313 -1980 -138 -459 -189
-777 -177 -1110 7 -182 26 -321 67 -480 40 -155 44 -214 30 -408 -12 -161 -14
-174 -37 -199 -14 -14 -35 -29 -47 -32 -11 -3 -291 -37 -621 -76 -871 -103
-1046 -127 -1185 -160 -125 -31 -260 -49 -260 -36 0 4 24 39 54 79 l55 71 -59
58 c-84 83 -105 132 -105 240 l0 87 203 408 c327 655 459 892 688 1233 235
350 325 604 341 958 6 131 6 134 -22 192 l-28 59 -39 -32 c-62 -50 -75 -79
-82 -192 -9 -129 -37 -267 -81 -393 -69 -199 -139 -329 -329 -612 -145 -215
-234 -375 -461 -830 -103 -206 -217 -427 -253 -490 -84 -148 -111 -216 -167
-411 -111 -389 -165 -474 -406 -645 -62 -44 -126 -89 -141 -98 l-26 -17 -41
53 c-77 103 -97 176 -65 243 15 32 89 108 146 150 l26 20 -42 69 c-102 164
-182 222 -369 261 -61 13 -195 44 -297 69 -250 60 -396 87 -428 80 -20 -5
-165 -81 -191 -101 -2 -1 13 -24 34 -50 21 -27 42 -53 47 -59 5 -8 -56 -140
-163 -355 -189 -379 -184 -373 -210 -250 -46 220 134 720 350 971 l30 35 33
-19 c207 -119 312 -151 467 -144 97 5 371 56 371 69 0 4 -48 65 -106 135
l-106 129 70 14 70 13 -62 132 c-94 196 -120 246 -126 246 -3 0 -65 -20 -138
-44 -73 -25 -132 -42 -132 -38 0 23 684 2089 695 2098 8 5 83 20 167 33 209
31 193 22 153 86 -19 30 -35 56 -35 58 0 2 117 53 260 113 143 60 260 111 260
114 0 3 -66 41 -148 84 -81 43 -152 83 -158 88 -8 6 -9 23 -2 56 13 67 3 104
-41 154 l-39 43 -38 -35 c-20 -19 -118 -129 -217 -245 -99 -115 -184 -211
-188 -213 -11 -4 -13 39 -14 308 -1 243 -10 295 -92 560 -59 191 -59 199 46
494 18 49 30 90 28 92 -2 2 -72 -23 -156 -56 -84 -33 -156 -58 -161 -55 -14 8
-33 140 -26 177 11 58 64 93 171 112 58 11 163 67 268 142 152 108 208 114
397 42 117 -44 374 -128 394 -128 13 0 36 41 36 63 0 10 -368 253 -402 266 -5
1 9 -33 31 -78 23 -45 36 -81 31 -81 -18 0 -85 37 -119 65 -51 44 -44 74 39
157 39 39 69 72 68 72 -71 46 -803 488 -812 492 -8 3 -19 -3 -25 -13 -8 -15
-1 -35 30 -92 22 -41 38 -75 37 -77 -2 -1 -88 -19 -193 -39 -104 -19 -191 -37
-193 -40 -9 -9 30 -56 61 -75 38 -23 78 -25 167 -5 86 19 139 19 146 0 7 -16
-111 -187 -171 -247 -29 -29 -50 -40 -96 -50 -32 -7 -59 -14 -59 -18 0 -3 7
-30 15 -60 23 -84 21 -90 -22 -90 -27 0 -65 16 -133 54 -52 29 -96 52 -98 51
-2 -2 1 -44 7 -94 11 -101 9 -96 208 -453 203 -366 293 -569 332 -749 30 -140
54 -388 48 -499 -4 -84 -46 -420 -52 -428 -2 -2 -22 6 -44 18 -23 11 -53 25
-67 31 l-26 9 21 -32 c131 -200 135 -374 15 -690 -26 -68 -59 -161 -75 -208
-30 -92 -34 -95 -101 -77 l-28 7 -2 -180 -3 -181 -79 71 c-43 38 -82 70 -86
70 -4 0 -10 -128 -14 -284 -8 -378 -30 -498 -117 -642 -31 -50 -152 -184 -168
-184 -3 0 -34 88 -69 195 -38 120 -67 195 -75 195 -7 0 -22 -6 -32 -14 -17
-12 -18 -17 -6 -42 8 -16 24 -53 38 -83 l24 -53 -38 7 c-96 18 -173 89 -200
185 l-17 61 -55 -55 -56 -55 -144 105 -143 105 -24 -22 c-13 -12 -24 -28 -24
-35 0 -7 34 -43 75 -81 41 -37 75 -72 75 -77 0 -5 -34 -46 -75 -92 -61 -67
-72 -83 -58 -88 121 -34 269 -79 271 -81 2 -2 28 -99 57 -215 36 -145 49 -213
42 -216 -7 -2 -43 -10 -80 -18 -37 -7 -70 -16 -73 -18 -2 -3 27 -74 66 -158
47 -103 66 -156 59 -161 -6 -3 -74 -24 -151 -44 -76 -21 -141 -42 -144 -47 -3
-4 7 -126 21 -269 14 -144 24 -268 21 -275 -3 -7 -14 -17 -25 -23 -18 -10 -35
6 -160 147 l-140 158 -124 -21 -124 -22 -268 160 c-351 208 -353 207 -164 -47
77 -103 138 -190 136 -192 -2 -3 -62 -12 -133 -21 -151 -18 -344 -20 -499 -4
-494 51 -686 73 -723 83 -65 17 -97 55 -127 154 -14 47 -57 148 -95 225 -38
77 -72 155 -75 173 -4 18 -3 63 2 101 l8 68 48 -62 c42 -53 51 -60 68 -50 11
6 19 14 17 18 -22 55 -124 261 -129 261 -4 0 -18 -28 -32 -63 -14 -34 -31 -63
-38 -64 -8 -2 -106 24 -219 56 l-205 59 64 29 64 29 126 -13 c69 -8 135 -12
147 -11 15 2 -69 81 -337 313 -197 171 -355 311 -351 312 4 1 123 -5 265 -15
141 -10 257 -16 257 -13 0 19 -68 114 -93 129 -61 37 -74 37 -117 -2 -22 -20
-44 -36 -49 -36 -22 0 -65 22 -114 59 -63 48 -142 71 -243 71 -128 0 -288 -41
-322 -82 -11 -14 14 -38 185 -184 109 -92 207 -176 218 -186 20 -19 -87 28
-405 176 -187 88 -232 112 -382 207 -59 38 -125 77 -146 88 l-38 19 -52 -33
c-43 -26 -60 -32 -95 -29 -106 10 -614 65 -634 69 -17 4 -23 -2 -32 -27 -6
-17 -11 -35 -11 -39 0 -11 141 -55 465 -144 154 -42 290 -83 303 -91 12 -8 22
-22 22 -32 0 -10 11 -41 25 -69 37 -74 62 -83 229 -83 87 0 136 -4 136 -10 0
-6 -12 -34 -26 -62 l-26 -51 39 7 c61 11 67 14 92 51 12 19 43 44 67 55 81 40
137 15 316 -137 210 -178 660 -606 796 -757 101 -112 304 -378 295 -385 -8 -7
-780 -221 -796 -221 -5 0 -6 24 -2 52 l7 53 -281 93 -280 93 17 45 c9 24 20
44 24 44 5 0 76 -34 158 -75 82 -41 155 -75 162 -75 7 0 21 7 31 14 16 12 8
28 -98 202 l-116 189 76 3 75 3 -65 83 c-36 46 -65 86 -65 89 0 2 56 -15 125
-39 69 -24 125 -41 125 -38 0 18 -94 134 -127 157 -104 71 -155 73 -280 11
-110 -56 -170 -65 -239 -39 -60 23 -100 59 -194 175 -100 123 -276 292 -367
353 -87 58 -196 109 -283 133 -95 26 -303 25 -432 -3 -86 -19 -106 -20 -175
-10 -133 20 -365 14 -598 -17 -115 -15 -223 -31 -239 -36 -23 -8 -36 -6 -61
10 -54 33 -121 27 -234 -21 -98 -43 -161 -53 -226 -36 -26 6 -40 1 -93 -33
-35 -22 -66 -40 -70 -40 -8 0 -62 95 -62 109 0 5 12 12 28 15 105 26 101 24
89 56 -6 17 -14 30 -17 30 -3 0 -69 -31 -148 -70 l-143 -69 14 -33 c8 -18 20
-45 27 -61 7 -15 11 -29 9 -31 -16 -15 -182 -97 -216 -106 -55 -17 -86 -7
-132 39 l-39 39 -6 -52 c-6 -54 -25 -87 -70 -120 -22 -17 -46 -21 -137 -24
-63 -3 -109 -8 -109 -14 0 -6 7 -37 16 -70 8 -33 14 -63 12 -67 -2 -4 -84 14
-183 41 -99 26 -186 48 -194 48 -22 0 -4 -64 50 -181 70 -151 78 -215 38 -292
l-15 -27 -39 29 c-22 16 -53 52 -69 80 -33 56 -39 58 -213 81 -148 19 -178 33
-269 121 l-80 79 -80 0 c-58 0 -166 17 -412 66 -227 46 -336 64 -343 57 -14
-14 5 -117 27 -150 23 -36 74 -63 117 -63 22 0 70 10 109 21 115 35 178 20
278 -65 40 -34 66 -48 109 -57 167 -34 549 -156 781 -249 58 -23 143 -53 188
-65 46 -13 86 -26 88 -28 3 -3 2 -17 -2 -31 l-6 -26 -118 6 c-107 6 -117 5
-124 -11 -8 -22 -19 -11 182 -179 142 -118 160 -136 135 -136 -15 0 -188 11
-383 25 -244 18 -357 29 -362 38 -22 34 -7 58 92 143 55 48 99 89 97 90 -2 2
-61 19 -132 38 -166 44 -175 48 -267 106 -111 72 -199 98 -371 112 l-142 11
-51 38 c-71 54 -138 81 -216 87 -94 7 -167 -10 -363 -83 -147 -55 -297 -95
-354 -95 -16 0 -51 47 -51 68 0 6 114 106 253 223 138 118 287 247 330 287
127 118 233 159 467 182 69 6 126 13 128 14 1 2 -25 13 -58 26 -46 17 -62 28
-66 47 -4 13 -4 27 0 30 11 12 691 173 756 179 87 9 106 18 130 56 51 84 9
138 -107 138 -94 0 -321 -35 -456 -70 -353 -91 -726 -284 -1049 -542 -107 -86
-174 -121 -258 -134 -41 -7 -41 -7 -157 -203 -63 -108 -123 -209 -133 -224
l-17 -28 -107 87 c-111 89 -119 92 -178 69 -14 -6 -11 16 23 142 22 81 42 161
46 177 l6 29 -56 -7 c-32 -3 -57 -3 -57 0 0 3 38 61 84 128 l84 122 -95 72
c-53 40 -97 71 -100 69 -2 -2 -29 -134 -59 -293 -30 -159 -57 -290 -58 -292
-2 -1 -14 39 -28 89 l-24 91 -234 -286 c-129 -157 -238 -286 -242 -286 -4 0
-71 90 -150 200 -79 110 -147 199 -153 200 -5 0 -16 -4 -24 -9 -12 -7 -11 -20
3 -81 12 -55 13 -76 5 -86 -18 -22 -26 -17 -64 45 l-36 60 -124 -65 c-68 -35
-137 -64 -152 -64 -15 1 -55 7 -88 15 -77 19 -247 19 -350 1 -44 -8 -138 -28
-210 -44 -71 -17 -179 -38 -240 -47 -145 -21 -203 -35 -371 -89 l-142 -46 -32
-50 c-18 -28 -34 -50 -37 -50 -2 0 -35 14 -73 30 -125 55 -179 39 -226 -65
-24 -55 -28 -58 -115 -70 -25 -4 -51 -10 -57 -14 -6 -3 -24 -35 -39 -70 l-28
-63 -50 55 c-28 30 -66 78 -85 106 -94 138 -262 179 -412 100 l-63 -33 -240
-7 c-132 -4 -259 -11 -283 -14 -62 -10 -89 0 -143 56 -53 55 -77 60 -164 33
-98 -30 -155 1 -240 129 -58 88 -71 126 -61 181 9 47 93 173 170 255 74 79 96
116 96 164 0 39 -36 99 -81 137 l-30 26 458 143 c896 281 1508 478 1543 496
85 44 67 24 625 720 813 1016 1138 1366 1606 1731 236 185 449 318 779 489
227 117 312 169 657 403 196 133 298 190 435 242 205 77 386 113 808 159 430
48 643 60 787 45 l61 -7 -194 -241 c-107 -132 -198 -242 -202 -244 -4 -1 -16
4 -26 11 -18 13 -17 17 12 113 17 54 30 100 28 101 -6 6 -232 -20 -240 -28 -5
-4 15 -50 43 -103 28 -52 48 -97 44 -99 -5 -2 -25 -10 -45 -16 -39 -13 -51
-31 -22 -31 13 0 15 -6 9 -27 -3 -15 -17 -81 -31 -147 -32 -160 -42 -193 -130
-429 -161 -433 -187 -641 -110 -882 29 -90 139 -292 189 -343 58 -61 99 -76
197 -69 72 5 97 3 160 -17 l75 -23 -115 -28 c-63 -15 -116 -29 -118 -30 -2 -2
15 -40 38 -85 33 -65 44 -80 58 -75 9 4 50 13 91 21 103 20 114 32 109 114 -3
36 -8 72 -12 82 -5 11 3 28 28 55 96 107 397 185 532 139 46 -15 282 -52 288
-45 2 2 6 23 10 46 l6 41 -203 49 -202 49 70 32 c169 80 346 222 478 384 120
149 197 280 384 658 151 304 323 634 368 706 l13 21 154 -28 c198 -36 198 -36
198 0 0 25 -5 29 -51 42 l-51 14 33 49 c38 56 50 62 313 157 77 28 145 55 149
59 17 15 -66 32 -133 28 -53 -4 -90 -16 -171 -53 -155 -70 -228 -95 -286 -95
-29 0 -53 3 -53 6 0 3 11 20 24 37 13 18 59 97 101 177 42 80 94 168 116 196
73 95 174 145 296 147 40 1 73 2 73 2 0 1 -15 30 -34 65 -27 51 -42 67 -68 76
-43 14 -46 39 -15 107 50 109 229 298 308 326 16 5 29 9 29 7 0 -1 -32 -78
-70 -171 -39 -93 -69 -173 -67 -178 1 -5 45 -25 97 -43 165 -59 233 -47 395
70 44 32 98 67 120 78 93 47 119 104 71 153 -42 42 -159 65 -408 80 -60 4
-108 10 -108 13 0 4 17 57 37 117 34 102 42 115 98 171 63 63 136 116 345 246
69 43 160 106 204 140 l79 63 -59 27 c-110 52 -207 33 -362 -72 -299 -202
-552 -471 -831 -885 -330 -489 -603 -965 -986 -1714 -223 -437 -293 -559 -406
-694 -124 -151 -222 -228 -421 -333 -64 -34 -171 -101 -237 -148 -159 -114
-235 -150 -321 -150 -86 -1 -155 33 -252 123 -103 97 -158 206 -158 318 0 59
44 294 85 448 83 319 177 493 382 707 179 188 236 268 438 618 145 252 251
409 351 520 151 167 257 295 527 633 415 518 505 611 822 841 77 55 234 173
350 262 115 88 215 163 222 167 8 5 15 -11 23 -50 33 -161 166 -308 284 -316
l36 -2 76 144 c76 143 76 143 48 138 -16 -3 -98 -14 -183 -23 -149 -17 -154
-17 -168 1 -12 17 -8 23 32 59 l45 41 -76 64 c-58 49 -74 67 -63 73 8 5 109
65 224 135 348 209 505 273 670 273 186 0 328 -78 440 -244 64 -94 113 -129
235 -170 163 -53 263 -66 493 -65 234 1 270 -5 355 -60 26 -16 72 -55 102 -86
30 -30 60 -55 67 -55 12 0 192 51 230 65 7 2 10 11 7 19 -5 13 -18 16 -142 32
l-54 6 29 18 c16 9 53 35 82 58 30 22 67 43 83 46 40 8 90 -17 123 -60 23 -31
31 -34 76 -34 87 0 94 4 339 237 l45 42 -3 -87 c-2 -51 0 -83 6 -77 21 24 71
93 96 133 l26 42 -70 51 -71 52 28 17 c170 102 1016 561 1022 554 5 -5 30 -91
57 -192 54 -209 39 -203 125 -47 62 113 167 218 239 239 29 9 68 16 85 16 78
0 253 -68 238 -93 -4 -7 -56 -69 -116 -139 l-108 -128 -30 15 c-34 18 -35 16
-15 -70 8 -33 14 -60 13 -61 -1 -1 -143 -93 -315 -204 -302 -195 -314 -201
-333 -184 -10 9 -19 22 -18 28 0 6 36 42 80 79 129 112 106 116 -98 17 -139
-68 -145 -72 -164 -114 -10 -24 -22 -57 -25 -73 -5 -25 -1 -30 35 -45 51 -21
52 -35 5 -111 -20 -32 -33 -61 -30 -64 3 -3 128 17 278 44 150 27 274 47 276
43 1 -4 -29 -94 -68 -200 -39 -106 -69 -194 -67 -196 2 -2 122 107 267 241
248 230 265 244 276 224 15 -28 52 -48 89 -49 45 0 99 31 150 88 57 63 110 85
193 80 l60 -3 82 235 c46 129 87 243 92 252 7 14 18 10 82 -34 l74 -50 123 67
c68 37 126 69 128 71 2 2 -22 49 -54 105 -39 69 -54 104 -46 108 6 4 56 18
111 31 92 22 100 25 100 47 0 20 -4 23 -20 18 -19 -6 -20 -2 -20 103 0 131 9
159 85 278 56 87 314 446 341 473 12 13 16 12 34 -4 20 -18 20 -18 20 82 l0
101 -267 -68 c-148 -36 -277 -70 -289 -74 -18 -5 -23 0 -33 35 -15 50 -14 51
84 75 87 21 87 21 73 43 -9 15 -1 33 49 107 98 145 120 191 143 299 27 130
113 311 197 415 99 123 128 199 141 371 l7 94 69 12 c38 7 70 14 71 15 1 2 5
47 8 101 l5 99 -46 -4 -46 -3 -19 60 c-27 85 -26 209 3 300 28 87 40 111 102
203 l50 74 -103 134 c-213 280 -271 347 -343 396 -81 54 -125 107 -171 203
-46 97 -68 186 -69 280 -1 77 17 159 34 153 4 -2 374 -408 823 -902z m-5256
-2987 c-26 -36 -398 -411 -404 -406 -3 3 84 107 192 232 176 200 199 223 210
208 10 -13 10 -21 2 -34z m186 -51 c16 -6 26 -15 24 -22 -3 -6 -110 -249 -238
-539 -165 -374 -236 -526 -246 -523 -7 3 -38 24 -68 47 l-55 42 44 81 c24 44
141 274 261 509 178 351 220 427 234 422 9 -4 29 -12 44 -17z m97 -758 c225
-90 286 -135 424 -319 73 -96 78 -105 61 -117 -58 -42 -201 -21 -295 44 -45
32 -62 52 -90 109 -44 89 -60 107 -127 139 -56 28 -63 28 -188 5 -27 -5 -52
-7 -54 -5 -3 2 9 19 26 37 17 17 49 60 72 95 24 35 48 61 54 59 7 -3 59 -24
117 -47z m8144 -1021 c-7 -12 -96 -39 -129 -39 -67 0 -112 63 -145 203 -18 77
-50 310 -50 367 0 17 55 -67 165 -249 90 -151 162 -278 159 -282z m-10139
-6388 c183 -48 308 -141 420 -311 36 -54 105 -147 155 -207 122 -146 153 -209
158 -324 4 -89 5 -89 41 -118 33 -26 312 -350 319 -370 2 -5 -9 -22 -22 -39
l-26 -30 -95 40 -96 39 -60 -40 c-110 -73 -201 -88 -286 -46 -67 34 -96 78
-129 199 -23 82 -34 106 -64 135 -20 20 -108 124 -195 231 -378 463 -376 460
-442 475 -31 6 -23 -9 294 -545 179 -303 323 -553 320 -556 -2 -3 -51 -8 -109
-11 -127 -7 -235 12 -358 65 -128 54 -164 52 -318 -22 -121 -59 -122 -60 -147
-113 -14 -29 -28 -53 -30 -53 -3 0 -20 24 -40 53 -47 71 -80 163 -125 352 -46
189 -68 254 -112 337 -68 129 -221 257 -378 317 -123 48 -187 58 -568 92 -68
5 -133 14 -144 18 -19 7 -17 9 13 21 19 7 149 64 289 126 406 179 563 224 780
224 207 0 391 -64 569 -198 46 -34 85 -61 86 -60 2 2 5 19 7 38 l3 35 -185
124 c-101 69 -180 126 -174 128 33 11 253 21 399 18 134 -2 187 -7 250 -24z
m-10441 -23 c17 -43 12 -52 -127 -221 -122 -148 -174 -233 -194 -316 -23 -96
2 -204 72 -310 20 -29 34 -55 32 -57 -2 -2 -87 -4 -189 -4 -210 -1 -297 13
-370 59 -85 54 -100 150 -49 313 32 102 71 273 71 313 0 14 -5 34 -12 45 -7
10 -10 21 -8 23 5 5 727 184 747 186 7 1 19 -14 27 -31z m11501 -485 c270
-211 353 -289 465 -438 160 -213 229 -264 367 -273 40 -3 73 -8 73 -11 0 -4
-12 -19 -27 -33 -25 -24 -46 -29 -204 -52 -242 -36 -291 -35 -357 7 -140 87
-471 333 -541 402 -34 33 -32 78 4 146 25 46 29 65 30 134 0 44 -4 125 -9 180
-7 84 -7 98 5 89 8 -6 95 -74 194 -151z m-2540 -187 c103 -28 204 -84 271
-150 137 -137 217 -336 303 -747 22 -107 47 -222 55 -257 l14 -63 -38 -24
c-22 -14 -44 -26 -51 -27 -6 -2 -21 37 -35 97 -34 140 -100 271 -172 343 -112
112 -293 179 -637 237 -22 4 -101 10 -176 14 -198 11 -228 34 -269 203 -13 51
-40 153 -61 226 -22 73 -39 137 -39 142 0 6 54 10 133 11 72 1 175 5 227 9
146 12 405 4 475 -14z m-2389 -128 c16 -13 44 -40 62 -60 42 -47 81 -58 205
-58 l97 0 0 -35 c0 -44 11 -44 -280 -5 -123 17 -226 30 -227 30 -2 0 -3 -9 -3
-20 0 -14 16 -28 53 -47 l52 -27 -75 -23 c-85 -26 -90 -23 -90 47 -1 80 -2 80
-162 14 -133 -56 -143 -61 -148 -89 -5 -32 -15 -38 -182 -114 -146 -66 -152
-94 -64 -302 63 -150 102 -266 93 -275 -8 -8 -156 154 -175 193 -19 37 -26 64
-56 224 -8 45 -35 122 -66 190 -29 63 -54 123 -57 134 -4 19 14 26 219 84 123
35 284 83 359 107 200 64 228 60 229 -38 l1 -43 27 35 c78 102 130 123 188 78z
m10696 -298 c20 -6 51 -24 68 -40 37 -35 37 -54 -7 -171 l-25 -68 -46 21 c-26
11 -75 23 -109 25 -70 6 -67 10 -54 -69 l8 -48 -104 0 -103 0 0 103 0 103 83
59 c63 45 98 63 152 76 85 21 90 22 137 9z m-10026 -144 c107 -52 194 -98 194
-103 -1 -19 -64 -90 -98 -110 -54 -33 -118 -30 -237 11 l-99 35 44 19 c25 10
55 22 68 26 12 4 22 10 22 14 -1 4 -23 25 -51 47 -27 22 -61 50 -76 62 l-26
21 22 36 c13 20 27 36 33 36 6 0 98 -42 204 -94z m-352 -271 c38 -58 72 -105
75 -105 4 0 23 16 42 36 43 45 79 64 122 64 37 0 72 -32 121 -110 16 -25 37
-54 47 -65 18 -21 18 -21 -81 -74 -55 -29 -100 -53 -100 -54 0 -1 20 -1 44 1
89 7 141 -21 276 -151 86 -83 90 -89 78 -112 l-13 -24 -230 106 c-175 81 -256
112 -338 132 l-108 26 -23 55 c-12 30 -38 78 -58 105 -70 98 -80 133 -53 185
12 24 105 90 125 90 3 0 36 -48 74 -105z"/>
<path d="M17874 17660 c-16 -6 -23 -21 -28 -53 -9 -62 -37 -84 -127 -103 -41
-8 -77 -18 -80 -22 -5 -6 15 -101 132 -600 l31 -134 36 7 c20 4 39 8 42 10 3
2 -9 97 -26 212 -38 241 -70 501 -63 507 2 3 22 6 43 8 l39 3 18 -55 c10 -30
41 -127 68 -216 l51 -160 113 -17 c161 -24 157 -26 99 41 -127 148 -149 195
-163 362 -11 122 -26 169 -67 200 -26 21 -80 25 -118 10z"/>
<path d="M19316 17611 c-97 -132 -135 -247 -143 -431 -5 -121 7 -253 38 -429
l12 -63 23 28 c45 54 61 98 73 203 19 155 44 226 100 283 45 45 51 48 183 84
17 5 20 -7 34 -128 l6 -58 66 88 c36 48 67 89 69 91 2 3 13 -4 24 -15 l20 -21
-85 -193 c-47 -105 -83 -196 -80 -201 16 -27 45 -9 372 228 l102 74 -127 168
-128 167 -50 -51 c-75 -76 -138 -88 -326 -63 -65 8 -90 16 -93 27 -3 9 -10 66
-17 126 -18 162 -17 161 -73 86z"/>
<path d="M17230 17607 c0 -1 11 -43 25 -92 14 -50 25 -92 25 -95 0 -3 -35 -3
-77 1 -43 4 -79 6 -81 4 -2 -2 -1 -28 3 -57 6 -40 15 -60 40 -85 33 -33 34
-33 127 -33 51 0 104 -3 117 -7 29 -7 29 -9 -30 181 -44 140 -74 186 -123 186
-14 0 -26 -1 -26 -3z"/>
<path d="M20375 17436 c-52 -24 -213 -120 -229 -136 -22 -22 38 -22 227 -1
110 12 201 20 204 18 2 -3 -44 -56 -102 -118 -85 -92 -102 -115 -88 -120 10
-3 58 -14 106 -24 48 -10 86 -22 85 -27 -2 -4 -33 -43 -70 -85 -36 -43 -67
-82 -68 -88 0 -5 32 -17 72 -26 l73 -15 -100 -39 c-55 -21 -116 -44 -135 -52
l-35 -15 65 -30 c36 -16 164 -75 285 -130 121 -54 265 -120 319 -145 116 -54
153 -57 270 -25 112 31 199 29 306 -7 46 -16 91 -26 100 -24 8 3 40 22 71 41
l57 36 -79 97 c-44 54 -89 105 -101 113 -17 12 -41 14 -117 9 -118 -7 -226 12
-356 64 -149 59 -298 138 -338 180 -22 21 -68 97 -107 175 -65 127 -69 137
-50 143 14 5 39 -7 87 -40 l67 -47 29 32 29 33 -98 99 c-55 54 -125 117 -158
139 -51 34 -66 39 -115 39 -38 0 -72 -8 -106 -24z"/>
<path d="M19825 16695 c-101 -28 -263 -87 -353 -131 -187 -90 -288 -224 -333
-444 -59 -289 -155 -456 -351 -608 -14 -12 -31 -3 -126 67 l-110 80 -82 -36
c-110 -47 -153 -48 -190 -5 -33 40 -93 214 -150 435 -51 202 -89 283 -169 369
-203 218 -588 306 -903 207 -61 -20 -68 -25 -79 -56 -29 -88 15 -194 126 -308
72 -74 174 -128 285 -151 78 -16 323 -21 424 -9 46 6 54 5 59 -12 3 -10 37
-132 76 -271 162 -576 162 -577 460 -906 90 -99 109 -116 143 -121 51 -9 62
-1 191 137 153 163 208 236 273 361 94 182 186 257 316 257 26 0 48 2 48 5 0
3 -13 29 -29 58 -73 130 -91 269 -47 362 50 109 160 173 366 216 114 23 227
75 363 166 111 75 136 109 144 204 5 53 4 59 -22 83 -30 28 -75 43 -170 57
-78 11 -100 10 -160 -6z m-1177 -1364 c20 -10 59 -38 85 -61 40 -35 46 -45 35
-56 -16 -15 -217 -154 -228 -157 -6 -2 -83 90 -153 181 -13 17 44 78 98 104
47 22 105 18 163 -11z"/>
<path d="M19867 16131 c-11 -53 -32 -64 -109 -57 -78 7 -104 -2 -170 -62 -76
-68 -90 -132 -66 -300 9 -65 14 -82 25 -77 8 3 18 5 23 5 5 0 20 36 35 80 l27
80 133 0 133 0 35 -39 34 -38 39 66 c34 57 39 74 38 126 0 50 -7 74 -42 142
-43 84 -62 103 -105 103 -19 0 -26 -7 -30 -29z"/>
<path d="M19520 15029 c-19 -5 -91 -16 -159 -24 -130 -15 -141 -20 -141 -67 0
-22 9 -32 43 -53 57 -33 77 -32 149 7 l60 32 18 -24 18 -24 56 34 c58 36 66
52 45 93 -21 38 -30 41 -89 26z"/>
<path d="M17826 14900 c-60 -82 -100 -164 -92 -192 3 -13 23 -56 44 -96 l39
-74 80 201 81 200 -50 10 c-27 6 -51 11 -54 11 -2 0 -24 -27 -48 -60z"/>
<path d="M19605 14714 c-146 -74 -235 -129 -235 -146 0 -13 20 -67 36 -96 3
-5 354 172 354 178 -1 3 -20 26 -43 52 l-42 47 -70 -35z"/>
<path d="M18426 14679 c-160 -23 -297 -81 -379 -160 -28 -27 -48 -51 -45 -54
3 -3 45 6 94 20 120 35 241 43 319 20 76 -22 125 -47 171 -88 30 -26 46 -32
79 -31 37 1 209 60 399 138 65 26 64 30 -28 70 -182 81 -416 113 -610 85z"/>
<path d="M21526 13823 c-5 -13 27 -51 127 -151 l134 -134 86 53 c47 30 84 55
82 57 -6 7 -408 192 -416 192 -4 0 -10 -8 -13 -17z"/>
<path d="M21724 13496 c-28 -19 -94 -84 -147 -144 -117 -134 -198 -196 -441
-337 -185 -108 -188 -110 -149 -113 57 -4 162 22 235 59 34 17 116 68 183 112
66 45 160 101 210 126 100 51 126 80 150 165 18 66 29 166 18 166 -5 0 -31
-15 -59 -34z"/>
<path d="M17140 12957 c-9 -36 -9 -49 1 -68 41 -78 115 -138 204 -165 27 -8
124 -19 215 -24 90 -6 172 -12 181 -15 12 -4 20 3 27 23 l10 30 -301 127
c-166 70 -307 129 -313 132 -6 2 -17 -16 -24 -40z"/>
<path d="M16417 12861 c-108 -35 -297 -159 -297 -195 0 -12 16 -57 35 -101 19
-44 35 -92 35 -107 0 -31 28 -145 42 -172 9 -16 17 -17 71 -11 150 18 176 14
427 -70 129 -43 343 -115 474 -161 132 -46 241 -82 243 -80 3 3 -27 272 -42
379 -5 36 -4 38 40 59 35 17 42 25 33 35 -13 16 -93 39 -164 48 -66 8 -109 35
-124 78 -12 31 -18 35 -74 46 -73 15 -148 51 -264 127 -48 31 -118 73 -157 92
-62 32 -80 36 -160 39 -49 1 -102 -2 -118 -6z"/>
<path d="M18588 12821 c-92 -15 -170 -30 -173 -33 -4 -4 -9 -24 -11 -45 l-5
-38 84 -38 c103 -48 154 -56 184 -31 12 11 49 63 82 117 71 115 88 108 -161
68z"/>
<path d="M21050 12080 c-129 -99 -236 -183 -237 -187 -2 -5 1 -14 5 -21 7 -10
23 -10 81 2 l74 13 -7 -81 c-4 -44 -9 -91 -12 -102 -5 -19 0 -22 33 -26 21 -3
39 -4 41 -3 2 2 12 60 23 131 11 70 21 129 22 129 1 1 44 6 95 13 103 12 133
26 158 73 22 44 21 148 -2 195 -11 21 -23 39 -29 41 -5 1 -116 -78 -245 -177z"/>
<path d="M21815 11967 c-258 -61 -471 -111 -473 -112 -1 -1 3 -25 10 -54 9
-39 15 -50 27 -46 9 2 224 51 479 109 255 57 466 106 469 109 9 10 -18 107
-30 106 -7 -1 -223 -51 -482 -112z"/>
<path d="M22350 11786 l-405 -41 -3 -46 c-3 -41 0 -47 20 -52 65 -16 160 -18
271 -7 106 11 132 11 198 -3 98 -20 169 -54 244 -117 33 -27 89 -74 125 -104
37 -30 157 -104 275 -168 303 -166 796 -425 823 -433 22 -6 22 -5 22 98 l0
103 -106 95 c-222 197 -291 246 -393 276 -66 19 -213 13 -280 -11 -40 -15 -48
-15 -107 1 -59 16 -85 33 -48 33 8 0 47 7 87 16 51 12 79 25 99 44 26 27 28
34 28 110 l0 82 -27 -6 c-66 -14 -284 -36 -351 -36 -78 0 -134 17 -151 47 -9
16 1 23 94 68 104 50 105 50 90 73 -21 28 -9 29 -505 -22z"/>
<path d="M25455 11601 c-77 -20 -143 -69 -211 -156 -59 -77 -48 -80 106 -24
179 65 242 58 328 -35 l41 -45 21 72 c12 40 25 85 31 101 5 16 8 31 6 32 -2 2
-34 15 -73 30 -73 28 -194 40 -249 25z"/>
<path d="M21078 11476 c-49 -52 -88 -97 -88 -101 0 -4 20 -5 45 -3 41 3 45 1
45 -19 0 -21 -25 -217 -35 -274 -4 -26 -4 -27 98 -42 55 -9 103 -15 105 -12 2
2 -10 39 -26 82 -51 131 -57 186 -37 300 25 136 25 157 0 160 -14 2 -47 -26
-107 -91z"/>
<path d="M14183 11238 c-5 -7 -34 -55 -63 -107 l-53 -94 -26 29 c-14 16 -50
57 -79 89 l-52 60 6 -140 c4 -76 7 -146 8 -154 1 -16 -29 -22 -178 -36 l-69
-7 7 -66 c4 -37 9 -89 12 -117 l6 -50 -33 40 c-19 22 -46 53 -60 69 l-26 29
-24 -126 -24 -127 -62 39 -62 40 -20 -32 -19 -31 54 -42 c30 -24 64 -46 74
-49 24 -8 91 21 167 72 102 70 296 181 350 202 l52 20 28 -32 c16 -18 44 -54
63 -80 l34 -47 29 27 c68 66 71 113 10 196 -33 44 -38 59 -41 116 -2 43 4 103
19 171 28 137 29 144 3 148 -11 2 -25 -3 -31 -10z"/>
<path d="M15840 11175 c-184 -30 -335 -54 -335 -54 0 -1 1 -19 3 -41 l4 -40
150 0 c90 0 148 -4 146 -10 -1 -5 -45 -40 -95 -78 -106 -79 -109 -63 25 -156
45 -32 82 -61 82 -65 0 -5 -9 -20 -20 -34 -19 -24 -18 -57 2 -57 9 0 542 324
562 342 6 4 -7 15 -31 25 -37 16 -46 27 -92 120 -28 57 -54 103 -58 102 -5 -1
-159 -25 -343 -54z"/>
<path d="M25535 10953 c-11 -3 -23 -8 -28 -12 -6 -6 334 -401 352 -409 9 -3
41 146 41 194 0 40 -4 44 -84 111 -119 100 -207 136 -281 116z"/>
<path d="M17877 10934 c-3 -6 18 -23 46 -39 29 -16 158 -91 287 -168 427 -255
702 -384 945 -447 161 -42 164 -41 124 17 -206 298 -847 622 -1270 640 -73 3
-129 2 -132 -3z"/>
<path d="M24656 10803 c109 -75 201 -138 203 -140 3 -2 -19 -28 -48 -57 l-53
-54 89 -16 c131 -24 127 -25 120 34 -20 167 -160 300 -370 350 -161 39 -158
33 59 -117z"/>
<path d="M17362 10678 c-6 -18 -8 -35 -4 -39 5 -6 298 -125 678 -276 6 -2 18
15 27 37 15 40 15 41 -6 49 -306 118 -680 261 -681 261 -1 0 -7 -14 -14 -32z"/>
<path d="M15990 10559 c-63 -10 -145 -24 -182 -30 l-68 -11 0 -34 c0 -31 6
-38 61 -73 l61 -39 -88 -67 c-49 -36 -89 -71 -89 -77 0 -14 48 -77 58 -78 9 0
467 349 467 356 0 2 -8 19 -17 39 -20 42 -28 42 -203 14z"/>
<path d="M16691 10289 c-33 -10 -151 -117 -151 -137 0 -5 8 -12 18 -15 9 -2
89 -26 177 -52 199 -59 733 -183 839 -195 101 -12 113 -16 120 -43 3 -13 20
-40 38 -61 47 -54 97 -58 218 -20 49 16 90 32 90 36 0 9 -157 146 -244 213
-111 85 -227 150 -323 181 -92 30 -167 35 -403 23 -82 -4 -88 -3 -165 34 -86
42 -157 53 -214 36z"/>
<path d="M11032 10240 c-106 -27 -197 -50 -203 -52 -6 -2 58 -46 143 -98 l153
-95 -120 -14 -119 -14 49 -41 c104 -84 159 -152 234 -285 41 -72 76 -131 77
-131 2 0 18 28 35 63 25 49 33 78 37 138 7 126 -25 192 -181 377 -38 45 -68
84 -66 86 2 1 40 15 84 31 44 15 84 31 88 35 10 9 0 51 -11 49 -4 -1 -94 -23
-200 -49z"/>
<path d="M15360 10040 c-135 -60 -249 -111 -255 -113 -5 -2 7 -24 28 -49 20
-25 37 -48 37 -51 0 -3 -34 -11 -75 -18 -77 -12 -92 -22 -52 -33 127 -34 324
49 461 194 70 74 134 181 109 180 -5 0 -118 -50 -253 -110z"/>
<path d="M20848 9861 c-108 -42 -199 -79 -202 -82 -9 -9 406 -109 453 -109 24
0 71 -7 105 -16 87 -23 158 -15 195 21 33 30 65 99 76 159 9 45 38 51 -234
-44 l-193 -68 7 87 c3 47 9 96 12 109 3 15 1 22 -8 21 -8 -1 -103 -36 -211
-78z"/>
<path d="M19770 9773 c1 -88 64 -251 144 -371 56 -84 148 -176 201 -202 22
-11 164 -63 315 -116 484 -169 565 -205 793 -353 69 -45 133 -84 141 -87 15
-6 186 92 186 106 0 3 -26 18 -57 34 -165 80 -421 230 -913 536 -355 221 -575
352 -732 438 l-78 43 0 -28z"/>
<path d="M24137 9693 c-3 -16 -4 -29 -2 -31 3 -3 363 -102 371 -102 3 0 -4
-13 -15 -29 l-21 -29 54 -49 c30 -26 112 -79 183 -117 70 -38 147 -82 170 -98
l41 -28 13 38 c19 55 17 150 -5 192 -11 19 -55 69 -98 110 l-79 76 -287 47
c-158 26 -294 47 -303 47 -10 0 -19 -11 -22 -27z"/>
<path d="M17004 9478 c96 -82 103 -91 87 -117 -7 -11 -27 -5 -102 31 l-94 44
-62 -42 c-113 -78 -173 -71 -286 33 l-71 65 -56 -4 c-46 -3 -69 -12 -121 -46
-141 -92 -152 -97 -200 -96 -26 1 -106 17 -178 34 -72 18 -134 30 -138 27 -9
-10 39 -77 109 -154 70 -78 98 -131 98 -188 0 -77 -12 -74 -95 26 -92 113
-157 168 -250 214 -159 80 -353 85 -535 16 -87 -33 -85 -23 -29 -166 28 -71
52 -131 54 -133 1 -2 16 20 32 48 l30 51 60 -133 60 -133 114 -3 114 -3 39 78
38 77 90 -173 91 -173 40 5 c95 13 127 68 127 221 l0 109 29 -24 c16 -13 69
-59 118 -103 125 -112 145 -126 218 -152 l64 -23 13 42 c8 25 12 87 11 154
l-2 111 82 -30 c190 -69 211 -77 214 -75 1 2 -7 65 -19 140 -11 76 -18 140
-15 143 3 4 114 -93 245 -215 132 -122 243 -221 246 -221 4 0 25 12 47 27 84
55 90 118 24 247 -26 52 -45 102 -45 121 l0 33 58 -15 c87 -22 167 -70 226
-134 64 -69 100 -141 130 -259 l22 -87 38 19 c21 11 36 25 33 31 -2 7 -28 121
-57 254 -51 232 -53 241 -74 234 -67 -25 -75 -23 -85 17 -31 115 -146 214
-318 275 -64 23 -213 57 -250 57 -8 0 28 -37 81 -82z"/>
<path d="M23436 9500 c-148 -101 -166 -117 -166 -153 1 -18 8 -43 16 -57 14
-22 13 -13 -1 23 -4 10 42 27 170 63 125 35 174 53 170 62 -6 17 -88 121 -96
121 -3 1 -45 -26 -93 -59z"/>
<path d="M12961 9375 c-24 -64 -42 -117 -40 -119 6 -4 233 -35 236 -32 10 10
24 127 19 159 -12 74 -52 107 -129 107 l-43 0 -43 -115z"/>
<path d="M9923 9102 c3 -28 11 -61 17 -72 6 -11 110 -87 232 -167 213 -141
222 -146 246 -132 47 27 47 36 -13 180 l-56 136 -37 -13 c-20 -7 -46 -13 -58
-14 -23 0 -99 37 -179 88 -32 20 -70 34 -104 38 l-54 7 6 -51z"/>
<path d="M18081 9093 c-30 -140 -39 -162 -82 -188 -97 -62 -103 -143 -22 -277
28 -46 81 -142 117 -215 128 -253 207 -327 409 -382 89 -24 105 -32 235 -109
51 -30 94 -53 96 -51 2 2 27 53 55 113 l51 109 -60 64 c-61 65 -80 104 -63
132 5 9 44 34 86 56 42 22 77 42 77 45 0 7 -344 168 -349 164 -2 -2 27 -49 63
-105 37 -56 65 -104 62 -106 -6 -6 -99 46 -180 100 -167 112 -266 278 -266
446 0 40 -6 63 -22 85 -18 27 -170 166 -188 174 -4 1 -12 -23 -19 -55z"/>
<path d="M19931 9046 c-37 -146 16 -240 207 -371 l70 -47 73 15 c71 15 76 15
112 -4 47 -24 110 -70 242 -177 85 -69 102 -80 116 -69 9 7 32 24 51 39 l34
27 172 -64 c95 -36 176 -65 181 -65 4 0 16 19 27 41 l18 42 -34 29 c-230 195
-549 386 -856 512 -101 41 -375 136 -394 136 -4 0 -13 -20 -19 -44z"/>
<path d="M24314 9052 c-153 -54 -427 -217 -464 -277 -17 -28 -80 -170 -80
-181 0 -6 107 -74 115 -74 4 0 4 13 0 29 -6 26 -1 32 62 79 139 102 192 118
336 101 242 -28 258 -29 298 -12 53 21 95 71 141 171 21 47 37 86 36 86 -15 8
-157 65 -208 83 -86 30 -138 29 -236 -5z"/>
<path d="M9775 8961 c-17 -4 -64 -24 -105 -44 -42 -19 -87 -38 -103 -42 -15
-4 -27 -10 -27 -14 0 -4 26 -26 58 -48 82 -58 295 -254 285 -263 -4 -4 -41
-20 -81 -35 -40 -16 -75 -32 -78 -36 -2 -4 71 -71 163 -148 l167 -140 20 36
c12 20 32 45 47 55 32 24 62 14 123 -42 l43 -40 18 117 c9 65 19 127 22 138 5
19 4 19 -17 -2 l-23 -21 -103 89 c-132 115 -180 170 -202 233 -28 82 -75 169
-102 188 -32 22 -67 28 -105 19z"/>
<path d="M19250 8751 c0 -29 44 -144 70 -183 43 -65 132 -145 255 -228 57 -39
129 -99 160 -132 l56 -61 252 -33 c139 -19 257 -33 263 -32 6 2 -71 90 -171
197 l-183 194 34 29 34 30 98 -85 c102 -89 112 -92 112 -26 0 54 -19 98 -50
114 -47 25 -168 38 -302 33 l-128 -5 0 49 c0 26 -1 48 -3 48 -1 0 -110 23
-242 50 -263 55 -255 54 -255 41z"/>
<path d="M10440 8633 c0 -4 -18 -158 -41 -340 l-41 -333 25 -82 c15 -46 51
-183 81 -304 76 -312 146 -472 260 -600 l49 -56 40 163 c33 139 39 182 40 284
2 111 0 124 -24 175 -15 30 -51 84 -82 118 -118 135 -123 219 -22 330 30 34
35 44 26 61 -11 19 -14 19 -52 6 -23 -8 -48 -15 -55 -15 -20 0 -68 161 -60
202 3 18 11 61 17 94 15 76 3 128 -45 195 -33 45 -116 119 -116 102z"/>
<path d="M19090 8299 c0 -42 29 -140 58 -193 16 -30 87 -112 172 -199 104
-107 138 -147 120 -143 -14 3 -56 13 -95 20 l-70 15 -22 -27 c-12 -15 -18 -30
-15 -34 4 -3 144 -104 312 -223 168 -119 307 -220 308 -226 2 -5 -31 -9 -78
-9 l-83 0 35 -42 c49 -59 187 -169 282 -225 102 -60 251 -111 348 -119 42 -4
84 -4 93 0 13 4 -28 39 -156 132 -96 69 -175 129 -177 134 -2 6 6 23 18 40
l22 30 215 -146 216 -147 18 24 c17 23 17 25 1 40 -9 9 -171 135 -359 278
-189 144 -343 265 -343 269 0 3 21 27 46 53 l47 47 -32 44 c-36 51 -81 87
-231 185 -182 120 -254 221 -267 373 l-5 65 -63 -61 c-67 -65 -118 -90 -163
-79 -40 10 -86 48 -121 101 -27 41 -31 44 -31 23z"/>
<path d="M12566 7970 c-85 -15 -136 -68 -144 -149 -2 -28 -1 -51 3 -51 9 0
448 170 453 175 5 5 -120 24 -193 29 -38 3 -92 1 -119 -4z"/>
<path d="M22655 7653 c-42 -93 -80 -174 -82 -180 -4 -10 21 -13 106 -13 l111
0 0 170 c0 157 -1 170 -19 180 -11 5 -24 10 -29 10 -5 0 -44 -75 -87 -167z"/>
<path d="M9242 7478 c-149 -106 -271 -198 -272 -205 0 -9 101 -337 117 -380 3
-7 -2 -13 -11 -13 -9 0 -16 -5 -16 -10 0 -12 353 -470 358 -465 8 7 -30 289
-48 359 -22 88 -42 130 -123 254 -51 80 -59 99 -59 138 1 24 10 64 20 87 17
39 129 193 261 360 29 37 51 67 49 67 -3 0 -127 -87 -276 -192z"/>
<path d="M18701 7612 c13 -11 213 -155 443 -322 l420 -303 18 23 c18 22 17 23
-15 59 -17 21 -74 87 -126 147 -135 156 -177 199 -258 264 -132 106 -252 150
-411 150 -94 0 -95 0 -71 -18z"/>
<path d="M11924 7498 c-37 -17 -47 -148 -16 -207 27 -54 58 -71 141 -78 61 -5
72 -4 70 8 -8 31 -154 289 -164 288 -5 0 -20 -5 -31 -11z"/>
<path d="M21049 7112 c117 -155 215 -284 220 -286 11 -7 127 69 134 89 13 33
7 164 -9 205 -15 36 -25 44 -117 89 -83 40 -198 89 -426 179 -8 3 81 -121 198
-276z"/>
<path d="M23435 7269 c-33 -5 -104 -19 -157 -30 l-97 -22 34 -93 c31 -85 34
-104 15 -104 -4 0 -37 43 -75 96 -37 52 -69 93 -71 91 -8 -7 34 -205 49 -234
36 -69 90 -88 213 -73 65 8 333 67 381 85 8 2 6 21 -7 67 -10 35 -21 80 -25
101 -8 52 -59 105 -110 117 -46 11 -68 11 -150 -1z"/>
<path d="M7510 6099 c-74 -33 -138 -64 -142 -68 -9 -8 31 -221 41 -221 10 0
183 48 186 52 1 2 15 62 29 133 15 72 30 138 32 148 3 9 2 17 -3 17 -4 0 -69
-28 -143 -61z"/>
</g>
</svg>
